<?xml version="1.0" standalone="no"?>
<!DOCTYPE svg PUBLIC "-//W3C//DTD SVG 20010904//EN"
 "http://www.w3.org/TR/2001/REC-SVG-20010904/DTD/svg10.dtd">
<svg version="1.0" xmlns="http://www.w3.org/2000/svg"
 width="700.000000pt" height="700.000000pt" viewBox="0 0 700.000000 700.000000"
 preserveAspectRatio="xMidYMid meet">
<metadata>
Created by potrace 1.11, written by Peter Selinger 2001-2013
</metadata>
<g transform="translate(0.000000,700.000000) scale(0.100000,-0.100000)"
fill="#000000" stroke="none">
<path d="M3253 6858 c-18 -4 -48 -24 -67 -44 -75 -77 -63 -190 28 -258 21 -16
42 -21 90 -21 53 0 68 4 98 27 49 37 71 89 66 149 -11 109 -109 176 -215 147z"/>
<path d="M4730 6581 c-99 -32 -182 -111 -205 -196 -13 -46 -14 -123 -3 -163 6
-20 25 -60 44 -88 l34 -51 -174 -379 c-95 -208 -183 -401 -196 -429 -12 -27
-41 -90 -64 -140 -23 -49 -55 -120 -71 -156 l-30 -66 -77 3 c-240 10 -435
-175 -439 -416 -1 -62 -3 -70 -23 -75 -11 -4 -30 -10 -41 -15 -45 -20 -593
-220 -601 -220 -5 0 -30 21 -55 48 -51 52 -99 81 -171 102 -45 13 -48 17 -50
50 -2 46 -4 74 -12 140 -3 30 -8 82 -11 115 -3 33 -8 80 -10 105 -3 25 -7 72
-10 105 -3 33 -7 76 -9 95 -3 19 -8 71 -11 115 -4 44 -8 96 -10 115 -2 19 -7
64 -10 100 -3 36 -7 81 -10 100 -2 19 -7 73 -11 120 -3 47 -7 92 -9 101 -2 8
-6 53 -10 100 -4 46 -8 102 -11 124 -2 22 -7 76 -10 120 l-6 80 30 17 c39 21
89 90 103 142 53 195 -129 376 -320 319 -175 -52 -245 -256 -137 -403 26 -36
93 -84 133 -96 3 0 8 -44 18 -144 4 -36 8 -78 10 -95 2 -16 6 -70 10 -120 4
-49 8 -101 10 -115 5 -33 20 -190 30 -315 3 -38 8 -86 10 -105 6 -49 13 -123
20 -205 4 -38 8 -86 10 -105 4 -37 11 -110 20 -220 6 -62 9 -96 20 -200 l5
-45 -50 -23 c-68 -32 -137 -104 -174 -182 -28 -58 -31 -75 -32 -165 l-1 -100
-304 -87 c-167 -48 -360 -104 -429 -124 -69 -19 -161 -46 -205 -59 -44 -13
-161 -47 -260 -75 -99 -28 -240 -69 -313 -91 l-133 -40 -46 41 c-141 124 -366
74 -451 -100 -33 -67 -29 -177 8 -249 93 -183 353 -210 480 -50 40 51 60 97
64 150 3 37 14 44 103 68 38 10 219 62 403 116 184 54 380 110 435 126 191 54
341 98 532 153 105 31 199 56 207 56 9 0 25 -9 35 -19 59 -59 183 -102 278
-96 72 4 108 15 178 53 30 17 57 27 60 22 2 -4 81 -65 174 -135 156 -117 169
-129 161 -150 -24 -63 8 -197 61 -254 19 -21 20 -24 6 -54 -8 -18 -35 -77 -60
-132 -52 -117 -95 -211 -143 -313 -19 -40 -34 -74 -34 -76 0 -2 -22 -51 -49
-108 -27 -56 -80 -173 -119 -258 -119 -263 -362 -794 -365 -796 -1 -1 -22 -5
-47 -8 -55 -7 -115 -47 -154 -104 -23 -32 -31 -56 -34 -102 -16 -218 232 -339
391 -191 76 70 95 196 44 283 l-27 46 26 59 c14 32 39 87 56 123 17 36 54 117
83 180 29 63 69 150 89 193 20 43 36 80 36 82 0 1 23 51 50 109 28 59 79 172
115 251 36 80 69 153 74 162 6 10 20 41 32 68 12 28 38 86 58 130 21 44 66
142 101 218 l63 137 44 2 c23 1 50 2 60 2 9 1 30 -19 47 -44 17 -25 86 -121
152 -215 67 -93 134 -189 150 -211 16 -23 106 -149 199 -280 94 -132 234 -329
312 -439 78 -110 155 -218 171 -240 51 -70 396 -556 412 -580 8 -12 38 -56 67
-96 l51 -72 -23 -31 c-129 -173 -105 -426 54 -567 50 -44 148 -95 201 -105
156 -27 314 31 413 152 254 313 -28 762 -427 679 -38 -8 -73 -11 -77 -7 -3 4
-129 180 -279 392 -151 212 -326 459 -391 550 -65 91 -137 192 -160 225 -23
33 -185 260 -359 505 -174 245 -324 457 -334 472 -18 27 -18 29 3 73 12 25 24
65 27 89 l6 43 237 88 c130 48 263 98 296 111 94 36 892 333 937 349 39 13 41
13 84 -20 55 -42 103 -58 175 -58 127 0 243 102 262 231 3 19 8 37 12 40 4 4
122 50 263 103 l256 96 34 -23 c136 -93 325 9 325 174 0 238 -328 296 -409 72
-20 -55 -5 -47 -269 -145 -99 -36 -200 -75 -225 -85 l-45 -19 -30 28 c-101 94
-281 89 -373 -10 l-27 -29 -285 86 c-157 47 -341 103 -409 123 l-125 38 -3 53
c-6 108 -55 216 -129 287 -19 17 -34 34 -34 37 0 6 17 44 137 306 47 102 89
194 93 205 4 11 28 63 53 115 24 52 54 118 67 145 12 28 36 79 52 115 17 36
50 110 75 165 25 55 48 103 51 106 4 4 30 9 59 12 100 10 188 70 235 160 32
61 32 184 0 248 -47 97 -140 159 -246 165 -33 2 -72 0 -86 -5z m-145 -2361
c110 -34 238 -72 285 -86 47 -14 130 -39 185 -56 l100 -30 -200 -75 c-110 -41
-364 -135 -565 -210 -200 -74 -391 -145 -425 -158 -256 -99 -309 -116 -322
-102 -14 14 -12 20 84 227 19 41 46 100 60 130 14 30 42 92 63 136 l37 81 72
-3 c76 -3 144 12 220 49 46 23 127 96 157 141 10 17 23 25 33 21 9 -2 106 -32
216 -65z m-955 32 c0 -5 20 -29 44 -53 l44 -44 -128 -279 -128 -280 -52 -3
c-28 -1 -72 -12 -97 -23 l-46 -20 -174 131 c-95 73 -173 135 -173 138 0 3 5
24 11 46 6 22 12 64 13 94 1 36 7 57 17 62 7 5 138 53 289 109 151 55 289 107
305 115 34 16 75 19 75 7z"/>
<path d="M3349 6046 c-2 -2 -29 -7 -59 -10 -113 -13 -165 -22 -309 -51 -46 -9
-266 -74 -316 -94 l-50 -19 1 -74 c1 -76 11 -178 18 -185 2 -2 37 9 77 25 273
109 567 161 879 157 226 -4 433 -33 609 -86 35 -10 68 -19 75 -19 7 0 18 17
25 38 8 20 31 71 51 113 l37 77 -86 25 c-105 31 -242 62 -336 76 -38 6 -88 13
-110 16 -43 7 -500 16 -506 11z"/>
<path d="M5533 6024 c-42 -22 -63 -52 -63 -93 0 -83 80 -129 157 -90 30 16 54
69 47 105 -11 62 -88 105 -141 78z"/>
<path d="M4760 5697 c-12 -28 -36 -80 -52 -115 -17 -35 -28 -64 -27 -66 2 -1
33 -20 69 -41 397 -236 729 -592 919 -990 24 -49 44 -91 46 -93 3 -4 219 79
228 87 15 15 -108 254 -206 401 -235 353 -526 623 -908 843 l-47 27 -22 -53z"/>
<path d="M2095 5596 c-147 -100 -232 -172 -370 -310 -143 -144 -155 -157 -236
-266 -292 -389 -466 -836 -515 -1317 -4 -35 -3 -63 2 -63 5 0 47 12 94 26 47
14 100 29 118 34 42 10 41 9 48 61 20 157 92 429 149 564 85 202 187 380 314
550 94 126 318 350 434 435 l89 65 -7 75 c-4 41 -9 95 -12 120 -3 25 -5 53 -5
62 0 10 -2 19 -6 22 -4 2 -48 -24 -97 -58z"/>
<path d="M5960 4026 c-124 -46 -120 -42 -107 -116 7 -34 20 -121 33 -205 3
-22 7 -123 9 -225 4 -224 -12 -375 -61 -575 -14 -55 -26 -108 -29 -118 -6 -26
-43 -131 -75 -212 -136 -343 -376 -685 -638 -908 -47 -39 -99 -84 -115 -98
l-29 -25 68 -97 c38 -53 74 -97 79 -97 17 0 183 137 283 235 335 323 593 770
707 1224 13 53 26 113 29 135 4 21 8 41 10 45 2 3 7 31 10 61 4 30 9 69 12 85
14 81 19 360 9 490 -5 62 -28 225 -39 280 -11 54 -38 165 -39 165 -1 -1 -54
-20 -117 -44z"/>
<path d="M6715 3376 c-150 -71 -156 -278 -11 -351 105 -53 219 -14 267 90 38
81 12 179 -63 238 -29 24 -48 30 -100 33 -42 3 -73 0 -93 -10z"/>
<path d="M1205 3264 c-5 -1 -50 -14 -100 -29 -126 -37 -137 -42 -131 -63 3 -9
8 -42 11 -72 7 -54 32 -188 55 -286 7 -27 34 -116 62 -199 169 -506 498 -954
934 -1273 39 -29 74 -52 77 -52 3 0 16 21 29 47 13 26 47 71 75 100 l53 52
-60 41 c-256 174 -516 459 -681 750 -161 281 -256 570 -299 909 -11 81 -10 80
-25 75z"/>
<path d="M5162 3214 c-195 -70 -290 -300 -199 -479 100 -198 333 -258 514
-133 64 43 124 133 138 203 31 163 -44 318 -190 393 -64 33 -196 41 -263 16z"/>
<path d="M2171 2827 c-227 -46 -270 -351 -66 -464 66 -36 169 -39 230 -6 83
44 136 124 140 211 4 73 -19 135 -69 186 -66 69 -142 92 -235 73z"/>
<path d="M5045 2238 c-44 -25 -59 -76 -34 -117 34 -55 95 -63 139 -16 65 69
-22 180 -105 133z"/>
<path d="M3675 1598 c-66 -36 -94 -92 -81 -162 16 -86 126 -133 203 -86 95 58
90 195 -9 244 -36 18 -84 20 -113 4z"/>
<path d="M6002 1587 c-41 -43 -19 -108 41 -121 39 -9 90 40 83 81 -11 60 -84
83 -124 40z"/>
<path d="M1345 1319 c-99 -29 -144 -152 -90 -244 81 -139 297 -89 309 72 6 76
-32 136 -107 168 -40 17 -67 18 -112 4z"/>
<path d="M4490 1288 c-47 -20 -141 -55 -210 -76 -111 -36 -151 -46 -250 -68
-55 -12 -199 -33 -270 -39 -82 -7 -340 -7 -380 -1 -14 3 -52 7 -85 10 -119 12
-320 54 -433 92 -23 8 -44 14 -46 14 -2 0 -6 -31 -8 -69 -4 -47 -14 -86 -31
-122 -15 -29 -26 -53 -24 -54 6 -5 200 -56 262 -70 201 -43 347 -58 546 -57
134 0 198 4 329 18 106 12 345 66 470 107 132 43 322 120 348 140 14 11 11 17
-77 136 l-56 77 -85 -38z"/>
</g>
</svg>
